<svg xmlns="http://www.w3.org/2000/svg">
  <symbol id="icon-GPB" viewBox="0 0 24 24" fill="none" xmlns="http://www.w3.org/2000/svg">
    <path d="M5.42822 6.86527C6.0479 6.67555 6.60453 6.3285 7.10918 5.92191C8.44724 4.84386 10.1486 4.19846 12 4.19846C13.7574 4.19846 15.3763 4.77787 16.6804 5.75804C16.5387 5.84873 16.3703 5.94034 16.172 6.03167C15.129 6.51201 13.6707 6.81044 12.187 7.11407L11.8182 7.18969C8.91748 7.7869 6.45301 8.33375 4.53762 9.06942C4.26338 9.17475 4.00122 9.28348 3.75027 9.39698C2.99999 9.73634 2.48902 10.4509 2.42744 11.272C2.419 11.3845 2.41249 11.4973 2.40792 11.6103C2.39459 11.9404 2.38792 12.1055 2.47155 12.1616C2.48343 12.1696 2.49435 12.1753 2.50772 12.1803C2.60183 12.2162 2.74629 12.105 3.03523 11.8826C3.30155 11.6776 3.61016 11.4821 3.96571 11.2942C5.73882 10.3569 8.43725 9.72352 12.1812 8.95272C12.3144 8.9253 12.4505 8.89758 12.5888 8.8694C14.0128 8.57938 15.6805 8.23971 16.9249 7.66662C17.6129 7.34978 18.2896 6.91151 18.7129 6.2651C19.0042 5.82038 18.845 5.24684 18.4514 4.88947C16.7469 3.34167 14.4835 2.39844 11.9998 2.39844C8.6394 2.39844 5.6823 4.12497 3.96714 6.73935C3.76936 7.04082 3.67047 7.19155 3.72872 7.28847C3.73628 7.30105 3.74593 7.31333 3.75636 7.32366C3.83672 7.40321 4.01414 7.34018 4.36897 7.2141C4.71071 7.09268 5.06415 6.97673 5.42822 6.86527Z" fill="#1E222E" fill-opacity="0.56"/>
    <path d="M20.6516 7.83332C20.5351 7.59182 20.4769 7.47107 20.4096 7.44565C20.3674 7.42966 20.3348 7.42876 20.2917 7.4424C20.2231 7.46409 20.1458 7.60422 19.9911 7.88448C19.7383 8.34233 19.3041 8.75263 18.6104 9.1354C17.1715 9.92927 14.9231 10.451 11.8209 11.1157C8.81408 11.7601 6.26241 12.3292 4.53766 13.2808C4.31583 13.4032 4.10333 13.5341 3.90201 13.6749C3.11449 14.2255 2.92273 15.2765 3.3381 16.143C3.34138 16.1499 3.34467 16.1567 3.34796 16.1635C3.46435 16.4049 3.52255 16.5255 3.58973 16.551C3.63207 16.567 3.66471 16.5679 3.70787 16.5542C3.77634 16.5325 3.85365 16.3925 4.00827 16.1124C4.26105 15.6545 4.6952 15.2442 5.38897 14.8615C6.82787 14.0676 9.0762 13.5458 12.1783 12.8811C15.1852 12.2368 17.7369 11.6676 19.4617 10.7161C19.6836 10.5936 19.8962 10.4627 20.0976 10.3218C20.8851 9.77116 21.0768 8.72018 20.6614 7.8537C20.6581 7.8469 20.6549 7.84011 20.6516 7.83332Z" fill="#1E222E" fill-opacity="0.56"/>
    <path d="M21.592 12.3745C21.6051 12.0424 21.6116 11.8764 21.5277 11.8204C21.5158 11.8125 21.5049 11.8068 21.4914 11.8018C21.3971 11.7661 21.2521 11.8785 20.9621 12.1034C20.6926 12.3124 20.3794 12.5115 20.0175 12.7027C18.2444 13.6399 15.546 14.2734 11.802 15.0442C11.6699 15.0714 11.5349 15.0989 11.3976 15.1268L11.3944 15.1275C9.97041 15.4175 8.3027 15.7572 7.0583 16.3303C6.37031 16.6471 5.69359 17.0854 5.27026 17.7318C4.98405 18.1688 5.13809 18.7326 5.52364 19.0852C7.23089 20.6462 9.50409 21.5984 11.9998 21.5984C15.3634 21.5984 18.3229 19.8686 20.0374 17.2499C20.2349 16.9481 20.3337 16.7972 20.2754 16.7004C20.2678 16.6878 20.2582 16.6755 20.2477 16.6652C20.1673 16.5857 19.9898 16.649 19.6349 16.7755C19.2868 16.8995 18.9265 17.0179 18.5552 17.1316C17.9355 17.3213 17.3789 17.6684 16.8742 18.075C15.5362 19.153 13.8348 19.7984 11.9834 19.7984C10.2259 19.7984 8.60704 19.219 7.30289 18.2388C7.44456 18.1481 7.61297 18.0565 7.81125 17.9652C8.85426 17.4849 10.3126 17.1864 11.7962 16.8828L12.165 16.8072C15.1519 16.1923 17.6761 15.6307 19.6147 14.8615C19.8362 14.7736 20.0495 14.6833 20.2551 14.5898C21.0035 14.2496 21.5121 13.5353 21.5728 12.7155C21.5811 12.6021 21.5876 12.4884 21.592 12.3745Z" fill="#1E222E" fill-opacity="0.56"/>
  <symbol id="icon-login" viewBox="0 0 24 24" fill="none" xmlns="http://www.w3.org/2000/svg">
    <path fill-rule="evenodd" clip-rule="evenodd" d="M12.0001 4.0166C9.77715 4.0166 7.9751 5.81866 7.9751 8.0416C7.9751 10.2645 9.77715 12.0666 12.0001 12.0666C14.223 12.0666 16.0251 10.2645 16.0251 8.0416C16.0251 5.81866 14.223 4.0166 12.0001 4.0166ZM6.4751 8.0416C6.4751 4.99023 8.94872 2.5166 12.0001 2.5166C15.0515 2.5166 17.5251 4.99023 17.5251 8.0416C17.5251 11.093 15.0515 13.5666 12.0001 13.5666C8.94872 13.5666 6.4751 11.093 6.4751 8.0416Z" fill="#8F939F"/>
    <path fill-rule="evenodd" clip-rule="evenodd" d="M11.9996 13.5833C10.1687 13.5831 8.3955 14.2243 6.98813 15.3954C5.58112 16.5663 4.6286 18.193 4.29593 19.993C4.29584 19.9934 4.29575 19.9939 4.29566 19.9944L3.98787 21.6998L2.51172 21.4334L2.82032 19.7236L2.82059 19.7221C3.21667 17.5768 4.35174 15.6379 6.02864 14.2425C7.70553 12.847 9.81829 12.083 11.9999 12.0833L12 12.0833C14.1842 12.0838 16.299 12.8503 17.9762 14.2494C19.6535 15.6485 20.787 17.5915 21.1793 19.7402L21.1794 19.741L21.4879 21.45L20.0117 21.7165L19.7037 20.0096C19.7036 20.0093 19.7036 20.0091 19.7035 20.0088C19.3741 18.2058 18.4229 16.5753 17.0154 15.4013C15.6077 14.2271 13.8328 13.5837 11.9997 13.5833" fill="#8F939F"/>
  </symbol>
  <symbol id="icon-logo" viewBox="0 0 203 50" fill="none" xmlns="http://www.w3.org/2000/svg">
    <g clip-path="url(#clip0_2_299)">
    <mask id="mask0_2_299" style="mask-type:luminance" maskUnits="userSpaceOnUse" x="0" y="0" width="203" height="50">
    <path d="M202.006 0H0V50H202.006V0Z" fill="white"/>
    </mask>
    <g mask="url(#mask0_2_299)">
    <path d="M34.8766 19.2387C34.7223 19.393 34.5679 19.4959 34.3622 19.6502C33.179 20.5761 31.3272 21.2963 28.7552 21.965C23.4054 23.4053 19.4959 23.6111 15.072 24.6914C14.1975 24.8971 13.3231 25.2058 12.5 25.5144C13.3231 25.9259 14.1975 26.3374 15.1235 26.6461C16.9239 26.1317 17.7984 25.8745 20.3704 25.463C21.3478 25.3086 24.4342 24.7428 26.5947 24.2798C30.607 23.5082 36.4712 21.6564 34.8766 19.2387ZM32.356 14.1975C31.533 13.8374 30.4527 13.4259 29.321 13.1173C28.8066 13.5288 28.2408 13.8889 27.4177 14.1975C28.8066 14.4547 29.8869 14.8148 31.07 15.1749C31.2243 15.3292 32.2017 14.4547 32.356 14.1975ZM12.8087 19.5473C18.0041 18.0041 23.4568 17.5412 29.0124 16.0494C26.8519 15.4835 25.6688 15.2263 23.4054 15.4835C20.0617 15.8951 16.4609 16.6152 13.3231 17.5412C12.0885 17.9012 5.65844 19.7531 7.5103 22.3251C7.5103 22.3765 8.59054 20.8333 12.8087 19.5473ZM9.20783 28.3951C9.20783 28.858 9.46503 29.321 10.1338 29.8354C10.2366 29.5782 10.3395 29.3724 10.4938 29.1152C10.0823 28.9095 9.67079 28.6523 9.20783 28.3951ZM11.677 28.1379C12.0885 27.8807 12.5515 27.6749 13.0659 27.4691C12.3457 27.1605 11.5741 26.8004 10.8025 26.4918C10.4424 26.6975 10.1338 26.9547 9.87655 27.1605C10.4938 27.4691 11.0597 27.8292 11.677 28.1379ZM31.6873 17.0267C30.6585 17.4897 29.1153 18.0041 26.9548 18.57C25.2058 19.0329 20.8848 19.6502 16.2552 20.6276C14.7634 20.9362 10.8025 21.9136 8.84775 23.5597C9.41359 24.0226 9.72223 24.1255 10.3395 24.4342C11.1626 23.9198 12.2428 23.4053 13.8889 22.9938C16.7181 22.2222 18.8272 21.9136 21.3992 21.5021C23.9198 21.0905 28.7037 20.1132 31.3272 19.1358C32.2017 18.8272 32.9733 18.4156 33.5906 17.9527C33.4362 17.7984 31.7387 16.9753 31.6873 17.0267ZM33.2305 16.1008C33.7449 16.358 34.2079 16.5638 34.6708 16.8724C34.9795 16.2551 34.7737 15.8436 34.105 15.2778C33.8478 15.5864 33.5391 15.8436 33.2305 16.1008ZM9.00207 25.5144C8.5391 25.2572 8.23046 25.0514 7.81894 24.7942C7.61318 25.2572 8.0247 25.7716 8.43622 25.9774C8.59054 25.823 8.79631 25.7202 9.00207 25.5144ZM31.1214 11.1111C31.0186 11.4712 30.6585 11.8827 30.4013 12.1399C31.1729 12.3457 31.9959 12.6543 32.7161 12.9115C32.6132 12.2428 31.8416 11.5741 31.1214 11.1111ZM6.63581 15.535C12.0885 11.9342 18.107 9.8251 28.3436 11.6255C28.9095 11.3169 29.2181 11.0082 29.3725 10.3395C26.8004 9.41358 24.0741 9.10494 20.4733 9.15638C17.2325 9.25926 11.4712 10.4424 8.38478 12.2942L9.31071 11.1111C11.4712 9.8251 17.1296 8.12757 21.3478 8.07613C24.3313 8.02469 25.8745 8.17901 29.4239 9.15638C29.1153 8.53909 28.3951 8.23045 27.3148 7.76749C23.8683 6.22428 17.4897 6.06996 12.2428 8.38477C12.9115 7.97325 13.5803 7.56173 14.4033 7.15021C16.1523 6.3786 18.9815 5.607 22.4794 5.65844C25.3087 5.70988 28.6523 6.68724 30.7099 8.74486C31.07 9.15638 31.2243 9.5679 31.3272 9.92798C32.9733 10.751 33.8992 11.5226 34.4136 12.4486C34.6194 12.9115 34.7223 13.4259 34.6194 13.9918C35.2881 14.4033 35.5967 14.7119 35.9568 15.1749C36.214 15.535 36.3684 15.9465 36.4198 16.358C36.4712 16.8724 36.5227 17.4383 36.0083 18.107C36.5741 18.3642 36.9856 19.1358 37.0885 19.4959C37.3457 20.7305 36.5741 21.9136 35.4939 22.8395C34.3107 23.9198 31.6358 25.1543 29.5268 25.7202C25.2572 26.8004 21.5021 27.2634 18.4671 27.8292C19.8045 28.1379 21.6564 28.6008 24.6399 28.6008C31.0186 28.6008 36.6255 25.5658 36.6255 25.5658C36.6255 25.5658 36.5227 25.9774 36.3683 26.3374C32.3046 28.8066 25.8745 29.8354 23.1482 29.7325C20.3704 29.5782 18.0041 29.1667 15.6893 28.4979C14.9692 28.7037 14.3004 28.9095 13.6317 29.2181C17.1296 30.8128 19.7531 31.1728 22.7881 31.3786C25.8231 31.5844 30.8642 30.8642 35.1338 29.321C34.928 29.5267 34.8251 29.8354 34.6194 29.9897C32.4589 31.1214 27.8292 32.3045 25.5144 32.4074C23.1996 32.5103 20.3704 32.4074 17.9527 31.9444C15.8436 31.5329 14.1461 30.8642 12.3457 30.0926C12.037 30.3498 11.8313 30.6584 11.7798 31.0185C18.7757 34.7222 25.3601 34.7737 32.8704 32.4588L32.2017 33.1276C23.9712 36.4712 17.5412 35.1852 12.5515 32.7675C12.3971 32.716 12.1914 32.6132 12.037 32.5103C12.5 33.3333 16.3066 36.1111 20.5762 36.4712C23.5083 36.7284 27.1091 36.214 29.2181 35.3395L27.9836 36.0082C26.9548 36.5226 24.2284 37.6543 20.4218 37.3971C15.3292 37.037 12.5 34.7737 11.214 33.5905C10.5967 33.0247 10.3395 32.4074 10.1852 31.6358C8.95063 30.8642 8.23046 30.2469 7.61318 29.321C7.25309 28.7551 7.30453 28.1379 7.40741 27.6235C7.45886 27.4691 7.45886 27.3148 7.56174 27.1605C6.99589 26.749 6.43005 26.3374 6.22429 25.8745C5.70988 24.9486 6.01852 24.177 6.37861 23.5597C6.06996 23.1996 5.81276 22.8909 5.65844 22.5309C5.50412 22.1193 5.50412 21.7078 5.55556 21.2449C5.65844 20.4732 6.06997 19.8045 6.58437 19.1872C7.71606 17.9012 9.41359 16.9239 12.4486 15.8951C15.3807 14.9177 16.5638 14.7634 18.7757 14.249C21.3478 13.6317 24.4342 13.4774 27.0062 12.5514C19.8045 11.2654 12.3457 12.4486 6.27573 16.6667L6.63581 15.535ZM0.720165 21.4506C0.720165 10.0309 9.97943 0.771605 21.2963 0.771605C32.6646 0.771605 41.8725 10.0309 41.8725 21.4506C41.8725 32.8704 32.6132 42.1296 21.2963 42.1296C9.97943 42.1296 0.720165 32.8189 0.720165 21.4506ZM0 21.4506C0 33.2819 9.56791 42.8498 21.3478 42.8498C33.1276 42.8498 42.6955 33.2305 42.6955 21.4506C42.6441 9.61934 33.0762 0 21.3478 0C9.56791 0 0 9.61934 0 21.4506Z" fill="#476BF0"/>
    <path d="M68.6734 23.4054L69.4965 17.6955L70.3195 23.4054H68.6734ZM72.2228 12.037H66.7701L63.0664 30.8128H67.4388L67.9532 27.572H70.9882L71.5026 30.8128H75.8751L72.2228 12.037Z" fill="#476BF0"/>
    <path d="M80.0929 19.4959C80.8131 19.4959 82.0991 19.0329 82.0991 17.644C82.0991 15.9979 80.6073 15.895 80.1958 15.895C79.6814 15.895 78.7554 15.9979 77.8295 16.4094L77.7781 12.3457C79.2698 11.9856 80.2987 11.8313 81.5332 11.8827C85.0826 11.8827 86.6773 14.4033 86.6773 16.821C86.6773 19.1872 85.2884 20.6275 84.0024 21.1934V21.3992C85.2369 21.8107 86.9859 23.0452 86.9859 25.8745C86.9859 29.4238 84.5168 31.3786 81.3789 31.3786C79.6814 31.3786 78.6011 31.1214 77.2637 30.4012L77.3151 26.4917C78.5497 27.0061 79.3727 27.0576 80.1958 27.0576C81.5847 27.0576 82.1505 26.0288 82.1505 25.2572C82.1505 24.1769 81.4818 23.5082 79.99 23.5082H78.241V19.4959H80.0929Z" fill="#476BF0"/>
    <path d="M88.9922 12.037H100.823V30.7613H96.451V16.5638H93.3132V30.7613H88.9922V12.037Z" fill="#476BF0"/>
    <path d="M108.642 20.4733H107.614V16.1523H108.642C109.62 16.1523 110.237 16.7181 110.237 18.3128C110.237 20.3189 109.208 20.4733 108.642 20.4733ZM109.054 12.037H103.241V30.8128H107.562V24.6399H109.003C113.272 24.6399 114.61 20.7819 114.61 18.3128C114.661 15.8436 113.169 12.037 109.054 12.037Z" fill="#476BF0"/>
    <path d="M122.685 26.4918C121.142 26.4918 120.371 24.6914 120.371 21.3992C120.371 18.107 121.142 16.3066 122.685 16.3066C124.229 16.3066 125 18.107 125 21.3992C125 24.6914 124.229 26.4918 122.685 26.4918ZM122.685 11.7798C117.541 11.7798 115.844 16.6152 115.844 21.3992C115.844 26.2346 117.593 31.0185 122.685 31.0185C127.829 31.0185 129.578 26.1831 129.578 21.3992C129.578 16.5638 127.829 11.7798 122.685 11.7798Z" fill="#476BF0"/>
    <path d="M153.293 27.0062H152.676V22.7366H153.293C153.807 22.7366 155.145 22.7881 155.145 24.6914C155.196 26.6975 153.807 27.0062 153.293 27.0062ZM153.447 19.0329H152.676V16.5638H158.386V12.037H148.406V30.8128H153.602C154.733 30.8128 159.414 30.3498 159.414 24.6914C159.414 19.856 155.814 19.0329 153.447 19.0329Z" fill="#476BF0"/>
    <path d="M175 12.037H179.27V18.7757H182.305V12.037H186.523V30.7613H182.305V23.3025H179.27V30.7613H175V12.037Z" fill="#476BF0"/>
    <path d="M189.352 12.037H193.621V18.7757H194.496L196.965 12.037H201.543L198.251 20.9362L202.006 30.7613H197.016L194.598 23.251H193.621V30.7613H189.352V12.037Z" fill="#476BF0"/>
    <path d="M54.5967 12.037H63.4959V16.7181H59.0206V30.8128L54.5967 30.7613V12.037Z" fill="#476BF0"/>
    <path d="M131.636 12.037H135.339L138.58 16.4609L141.821 12.037H145.525V30.7613H141.204V19.3416L138.58 22.6338L135.957 19.3416V30.8128L131.636 30.7613V12.037Z" fill="#476BF0"/>
    <path d="M165.895 23.4568L166.718 17.7469L167.541 23.4568H165.895ZM169.444 12.037H163.992L160.288 30.8128H164.661L165.175 27.572H168.21L168.724 30.8128H173.097L169.444 12.037Z" fill="#476BF0"/>
    <path fill-rule="evenodd" clip-rule="evenodd" d="M60.0801 38.9402H54.5967V48.191H57.7236C59.645 48.191 60.8082 47.0158 60.8082 45.4448C60.8082 43.8738 59.645 42.7257 57.7236 42.7257H55.6903V39.9221H60.0801V38.9402ZM59.6723 45.4569C59.6723 46.4539 58.9986 47.2122 57.7086 47.2122H55.6904V43.7077H57.7086C58.9986 43.7077 59.6723 44.46 59.6723 45.4569Z" fill="#80838F"/>
    <path d="M70.0322 38.7845V48.1894H68.9385V41.0142L62.9113 48.3435H62.5186V38.9386H63.6122V46.1169L69.6545 38.7845H70.0322Z" fill="#80838F"/>
    <path d="M78.5973 45.4952C78.5973 47.1659 77.1683 48.3411 75.2741 48.3411C73.8213 48.3606 72.4753 47.5808 71.7695 46.3109L72.5671 45.7067C73.1865 46.6583 74.1109 47.3169 75.259 47.3169C76.4946 47.3169 77.4614 46.5465 77.4614 45.4529C77.4614 44.5284 76.8149 43.7701 75.3013 43.7701H74.2076V42.7761H75.3587C76.4372 42.7761 76.9568 42.1447 76.9568 41.3048C76.9568 40.465 76.4251 39.7761 75.2741 39.7761C74.3496 39.7612 73.4881 40.2433 73.0173 41.039L72.2318 40.4499C72.8591 39.372 74.0276 38.7256 75.2741 38.7671C77.0263 38.7671 78.0928 39.8456 78.0928 41.2474C78.0982 42.0414 77.6742 42.7763 76.984 43.1689C77.9727 43.5081 78.6261 44.4504 78.5973 45.4952Z" fill="#80838F"/>
    <path d="M80.5127 38.9402H81.6064V42.7529H86.7937V38.9402H87.8873V48.191H86.7937V43.7348H81.6064V48.191H80.5127V38.9402Z" fill="#80838F"/>
    <path d="M90.3379 38.9402H96.2684V39.9221H91.4346V42.7529H95.1355V43.7348H91.4315V47.2121H96.4376V48.191H90.3379V38.9402Z" fill="#80838F"/>
    <path d="M97.1623 43.5648C97.1515 42.2871 97.6571 41.0592 98.5642 40.1594C99.4714 39.2596 100.703 38.7642 101.981 38.7854C103.516 38.756 104.961 39.5052 105.821 40.7763L105.002 41.4198C104.343 40.3931 103.201 39.7778 101.981 39.7914C99.8954 39.7914 98.2046 41.4822 98.2046 43.5679C98.2046 45.6535 99.8954 47.3443 101.981 47.3443C103.201 47.3585 104.342 46.7445 105.002 45.7189L105.815 46.3624C104.96 47.6356 103.514 48.3833 101.981 48.3443C100.703 48.3664 99.4707 47.8712 98.5633 46.9712C97.656 46.0712 97.1507 44.8428 97.1623 43.5648Z" fill="#80838F"/>
    <path d="M106.513 42.7642H109.866V43.6706H106.513V42.7642Z" fill="#80838F"/>
    <path fill-rule="evenodd" clip-rule="evenodd" d="M114.44 39.1163C112.646 39.8656 111.481 41.623 111.489 43.5671C111.478 44.8408 111.98 46.0654 112.882 46.9647C113.784 47.8639 115.01 48.362 116.284 48.3465C118.228 48.349 119.982 47.1786 120.725 45.3823C121.469 43.586 121.056 41.5186 119.679 40.146C118.302 38.7735 116.234 38.3669 114.44 39.1163ZM116.29 39.7973C118.378 39.7973 119.949 41.4227 119.949 43.5526H119.955C119.955 45.7127 118.414 47.3472 116.296 47.3472C114.178 47.3472 112.616 45.6946 112.616 43.5526C112.616 41.4106 114.202 39.7973 116.29 39.7973Z" fill="#80838F"/>
    <path d="M122.936 38.9402H124.035V42.7529H129.223V38.9402H130.316V48.191H129.223V43.7348H124.035V48.191H122.942L122.936 38.9402Z" fill="#80838F"/>
    <path d="M139.831 38.9402V48.191H138.737V39.9221H135.111C134.915 46.2001 134.172 48.2907 132.266 48.2907C132.078 48.3017 131.89 48.2675 131.719 48.191V47.2393C131.842 47.2727 131.969 47.287 132.096 47.2816C133.541 47.2816 133.963 44.6321 134.06 40.333L134.087 38.9463L139.831 38.9402Z" fill="#80838F"/>
    <path fill-rule="evenodd" clip-rule="evenodd" d="M143.394 46.3082H147.926L148.721 48.1844H149.884L145.875 38.7795H145.47L141.461 48.1844H142.609L143.394 46.3082ZM143.807 45.3257L145.656 40.7698L147.508 45.3257H143.807Z" fill="#80838F"/>
    <path fill-rule="evenodd" clip-rule="evenodd" d="M153.482 35.5621V35.9125C153.482 37.2568 154.292 38.1419 155.582 38.1419C156.872 38.1419 157.712 37.2568 157.712 35.9125V35.5621H156.805V35.9277C156.805 36.8248 156.358 37.3293 155.597 37.3293C154.836 37.3293 154.389 36.8097 154.389 35.9277V35.5621H153.482ZM159.369 48.3126V38.9088H158.977L152.95 46.2403V39.0628H151.856V48.4666H152.249L158.276 41.1381V48.3126H159.369Z" fill="#80838F"/>
    <path d="M161.468 38.9402H162.561V42.7529H167.749V38.9402H168.842V48.191H167.749V43.7348H162.561V48.191H161.468V38.9402Z" fill="#80838F"/>
    </g>
    </g>
    <defs>
    <clipPath id="clip0_2_299">
    <rect width="203" height="50" fill="white"/>
    </clipPath>
    </defs>
  </symbol>
  <symbol id="icon-markswebb" viewBox="0 0 24 14" fill="none" xmlns="http://www.w3.org/2000/svg">
    <path opacity="0.8" d="M4.8 0H0V4.666H4.8V0ZM14.401 0H9.601V4.666H14.401V0Z" fill="#758592"/>
    <path opacity="0.64" d="M24.003 0H19.203V4.666H24.003V0Z" fill="#758592"/>
    <path opacity="0.8" d="M4.8 4.66602H0V9.33202H4.8V4.66602Z" fill="#758592"/>
    <path opacity="0.8" d="M9.597 4.66602H4.797V9.33202H9.597V4.66602ZM14.401 4.66602H9.601V9.33202H14.401V4.66602Z" fill="#758592"/>
    <path opacity="0.64" d="M19.198 4.66602H14.3979V9.33202H19.198V4.66602Z" fill="#758592"/>
    <path opacity="0.8" d="M24.003 4.66602H19.203V9.33202H24.003V4.66602ZM4.8 9.33401H0V14H4.8V9.33401Z" fill="#758592"/>
    <path opacity="0.8" d="M9.597 9.33398H4.797V14H9.597V9.33398Z" fill="#758592"/>
    <path opacity="0.56" d="M14.401 9.33398H9.60095V14H14.401V9.33398Z" fill="#758592"/>
    <path opacity="0.64" d="M19.198 9.33398H14.3979V14H19.198V9.33398ZM24.0029 9.33398H19.2029V14H24.0029V9.33398Z" fill="#758592"/>
    <g opacity="0.4">
    <path d="M4.8 0H0V13.998H9.6V4.666H4.8V0Z" fill="url(#paint0_linear_6692_2)"/>
    <path d="M14.4 0H9.59998V13.998H19.2V4.666H14.4V0Z" fill="url(#paint1_linear_6692_2)"/>
    <path d="M19.2 0H24V13.998H19.2V0Z" fill="url(#paint2_linear_6692_2)"/>
    </g>
    <defs>
    <linearGradient id="paint0_linear_6692_2" x1="18.5" y1="-3.337" x2="6.093" y2="15.246" gradientUnits="userSpaceOnUse">
    <stop stop-color="white"/>
    <stop offset="1" stop-color="white" stop-opacity="0"/>
    </linearGradient>
    <linearGradient id="paint1_linear_6692_2" x1="18.5" y1="-3.337" x2="6.09297" y2="15.246" gradientUnits="userSpaceOnUse">
    <stop stop-color="white"/>
    <stop offset="1" stop-color="white" stop-opacity="0"/>
    </linearGradient>
    <linearGradient id="paint2_linear_6692_2" x1="18.5" y1="-3.337" x2="6.09295" y2="15.246" gradientUnits="userSpaceOnUse">
    <stop stop-color="white"/>
    <stop offset="1" stop-color="white" stop-opacity="0"/>
    </linearGradient>
    </defs>
  </symbol>
  <symbol id="icon-password" viewBox="0 0 24 24" fill="none" xmlns="http://www.w3.org/2000/svg">
    <path fill-rule="evenodd" clip-rule="evenodd" d="M20.5303 4.53033C20.8232 4.23744 20.8232 3.76256 20.5303 3.46967C20.2374 3.17678 19.7626 3.17678 19.4697 3.46967L3.46967 19.4697C3.17678 19.7626 3.17678 20.2374 3.46967 20.5303C3.76256 20.8232 4.23744 20.8232 4.53033 20.5303L7.37723 17.6834C8.74353 18.3266 10.3172 18.75 12 18.75C14.684 18.75 17.0903 17.6729 18.8206 16.345C19.6874 15.6797 20.4032 14.9376 20.9089 14.2089C21.4006 13.5003 21.75 12.7227 21.75 12C21.75 11.2773 21.4006 10.4997 20.9089 9.79115C20.4032 9.06244 19.6874 8.32028 18.8206 7.65503C18.5585 7.45385 18.2808 7.25842 17.989 7.07163L20.5303 4.53033ZM16.8995 8.16113L15.1287 9.93196C15.5213 10.5248 15.75 11.2357 15.75 12C15.75 14.0711 14.0711 15.75 12 15.75C11.2357 15.75 10.5248 15.5213 9.93196 15.1287L8.51524 16.5454C9.58077 16.9795 10.7621 17.25 12 17.25C14.2865 17.25 16.3802 16.3271 17.9073 15.155C18.6692 14.5703 19.2714 13.9374 19.6766 13.3536C20.0957 12.7497 20.25 12.2773 20.25 12C20.25 11.7227 20.0957 11.2503 19.6766 10.6464C19.2714 10.0626 18.6692 9.42972 17.9073 8.84497C17.5941 8.60461 17.2571 8.37472 16.8995 8.16113ZM11.0299 14.0307C11.3237 14.1713 11.6526 14.25 12 14.25C13.2426 14.25 14.25 13.2426 14.25 12C14.25 11.6526 14.1713 11.3237 14.0307 11.0299L11.0299 14.0307Z" fill="currentColor"/>
    <path d="M12 5.25C13.0323 5.25 14.0236 5.40934 14.9511 5.68101C15.1296 5.73328 15.1827 5.95662 15.0513 6.0881L14.2267 6.91265C14.1648 6.97451 14.0752 6.99928 13.99 6.97967C13.3506 6.83257 12.6839 6.75 12 6.75C9.71345 6.75 7.61978 7.67292 6.09267 8.84497C5.33078 9.42972 4.72857 10.0626 4.32343 10.6464C3.90431 11.2503 3.75 11.7227 3.75 12C3.75 12.2773 3.90431 12.7497 4.32343 13.3536C4.67725 13.8635 5.18138 14.4107 5.81091 14.9307C5.92677 15.0264 5.93781 15.2015 5.83156 15.3078L5.12265 16.0167C5.03234 16.107 4.88823 16.1149 4.79037 16.0329C4.09739 15.4517 3.51902 14.8255 3.0911 14.2089C2.59937 13.5003 2.25 12.7227 2.25 12C2.25 11.2773 2.59937 10.4997 3.0911 9.79115C3.59681 9.06244 4.31262 8.32028 5.17941 7.65503C6.90965 6.32708 9.31598 5.25 12 5.25Z" fill="currentColor"/>
    <path d="M12 8.25C12.1185 8.25 12.2357 8.25549 12.3513 8.26624C12.5482 8.28453 12.6194 8.51991 12.4796 8.6597L11.2674 9.87196C10.6141 10.0968 10.0968 10.6141 9.87196 11.2674L8.6597 12.4796C8.51991 12.6194 8.28453 12.5482 8.26624 12.3513C8.25549 12.2357 8.25 12.1185 8.25 12C8.25 9.92893 9.92893 8.25 12 8.25Z" fill="currentColor"/>
  </symbol>
  <symbol id="icon-tel" viewBox="0 0 16 16" fill="none" xmlns="http://www.w3.org/2000/svg">
   <path fill-rule="evenodd" clip-rule="evenodd" d="M4.83923 3.76808C4.34915 3.06816 3.85448 2.37148 3.35523 1.67808C3.31323 1.62008 3.23823 1.50508 3.15323 1.50008C3.11523 1.49808 2.92523 1.51008 2.59723 1.75808C1.63323 2.48808 1.24523 3.60208 1.66723 5.24208C2.06123 6.77208 3.31123 9.01508 5.14823 10.8521C6.98523 12.6891 9.22823 13.9391 10.7582 14.3321C12.3982 14.7551 13.5122 14.3671 14.2422 13.4031C14.4902 13.0751 14.5022 12.8851 14.5002 12.8471C14.4952 12.7621 14.3802 12.6871 14.3222 12.6451C13.8662 12.3131 13.0232 11.7171 12.2322 11.1611C11.9422 10.9571 11.7782 10.8441 11.6522 10.7661C11.4802 10.6601 11.3602 10.7481 11.2232 10.8811C11.0102 11.0881 10.8112 11.3151 10.5702 11.4911C10.2675 11.7132 9.90626 11.8418 9.53123 11.8611C8.97523 11.8891 8.47923 11.6591 8.06323 11.3081C6.82718 10.2978 5.69553 9.16613 4.68523 7.93008C4.33323 7.51208 4.10723 7.01008 4.14023 6.45208C4.16723 5.99708 4.34823 5.65208 4.51423 5.42508C4.68823 5.18608 4.91423 4.98908 5.11923 4.77808C5.24923 4.64408 5.34923 4.53608 5.23423 4.34808C5.10776 4.15158 4.97605 3.95751 4.83923 3.76808ZM4.56923 0.795081C4.90923 1.26308 5.51123 2.11608 6.06623 2.90508C6.45323 3.45708 6.64623 3.73208 6.72823 4.02308C6.84323 4.43308 6.82023 4.83908 6.62123 5.25608C6.49123 5.52808 6.35123 5.66808 5.87323 6.14608C5.75923 6.25908 5.64723 6.37008 5.63723 6.53908C5.62723 6.71308 5.72923 6.83708 5.83323 6.96308C6.78453 8.12799 7.84982 9.19495 9.01323 10.1481C9.13923 10.2511 9.28523 10.3721 9.45623 10.3631C9.62823 10.3551 9.74023 10.2411 9.85523 10.1261C10.3332 9.64808 10.4722 9.50908 10.7442 9.37908C11.1294 9.19777 11.5666 9.15983 11.9772 9.27208C12.2672 9.35308 12.5432 9.54708 13.0942 9.93408C13.8842 10.4891 14.7372 11.0911 15.2042 11.4321C16.2312 12.1781 16.2152 13.2821 15.4382 14.3081C14.2582 15.8661 12.4622 16.3201 10.3842 15.7851C8.54823 15.3141 6.07823 13.9031 4.08723 11.9131C2.09723 9.92308 0.687228 7.45208 0.214228 5.61608C-0.319772 3.53808 0.134228 1.74108 1.69223 0.562081C2.71823 -0.214919 3.82323 -0.230919 4.56923 0.795081Z" fill="currentColor"/>
  </symbol>
  <symbol id="icon-theme" viewBox="0 0 16 16" fill="none" xmlns="http://www.w3.org/2000/svg">
    <path fill-rule="evenodd" clip-rule="evenodd" d="M4.57251 0.77172C5.52197 0.321483 6.55081 0.0626638 7.60029 0.0100406C8.64977 -0.0425827 9.69934 0.11202 10.6891 0.465022C11.6788 0.818024 12.5893 1.36251 13.3686 2.0674C14.1479 2.77228 14.7808 3.62376 15.231 4.57322C15.6812 5.52268 15.9401 6.55152 15.9927 7.601C16.0453 8.65048 15.8907 9.70005 15.5377 10.6898C15.1847 11.6795 14.6402 12.59 13.9353 13.3693C13.2304 14.1486 12.379 14.7815 11.4295 15.2317C9.51199 16.1409 7.31185 16.2511 5.31309 15.5381C3.31433 14.8251 1.68067 13.3472 0.771509 11.4297C-0.137653 9.51221 -0.247849 7.31206 0.465165 5.3133C1.17818 3.31454 2.65499 1.68088 4.57251 0.77172ZM14.8585 8.00172C14.859 9.09057 14.6001 10.1639 14.1033 11.1328C13.6066 12.1017 12.8862 12.9384 12.0019 13.5737C11.1175 14.2089 10.0946 14.6244 9.01782 14.7858C7.941 14.9472 6.84122 14.8498 5.80951 14.5017C6.84217 13.7615 7.6834 12.7857 8.26341 11.6552C8.84342 10.5248 9.14547 9.27228 9.14451 8.00172C9.14547 6.73116 8.84342 5.47869 8.26341 4.34823C7.6834 3.21778 6.84217 2.24195 5.80951 1.50172C6.84122 1.15364 7.941 1.05627 9.01782 1.21765C10.0946 1.37903 11.1175 1.79454 12.0019 2.42977C12.8862 3.06501 13.6066 3.90171 14.1033 4.87064C14.6001 5.83957 14.859 6.91287 14.8585 8.00172Z" fill="#767A85"/>
  </symbol>
  <symbol id="icon-tg" viewBox="0 0 17 14" fill="none" xmlns="http://www.w3.org/2000/svg">
    <path fill-rule="evenodd" clip-rule="evenodd" d="M1.02113 6.083C4.80313 4.497 9.37713 2.241 13.3411 0.716001C17.0011 -0.628999 16.9401 -0.261999 16.3911 3.399C15.9631 6.327 15.4741 9.254 14.9881 12.182C14.8051 13.584 14.0711 14.316 12.5481 13.466L7.79113 10.111C7.11913 9.561 7.30213 9.133 7.85213 8.587L12.2431 4.438C13.4051 3.277 12.8541 2.852 11.5101 3.766L5.47213 7.852C4.61613 8.463 3.70313 8.463 2.72713 8.158L0.654127 7.424C-0.690873 6.935 0.348127 6.384 1.02113 6.082V6.083Z" fill="currentColor"/>
  </symbol>  
  <symbol id="icon-repit" viewBox="0 0 12 14" fill="none" xmlns="http://www.w3.org/2000/svg">
    <path d="M5.057 0.183116C5.11504 0.125062 5.18395 0.0790105 5.25979 0.047591C5.33563 0.0161715 5.41691 0 5.499 0C5.58109 0 5.66238 0.0161715 5.73822 0.047591C5.81406 0.0790105 5.88296 0.125062 5.941 0.183116L8.631 2.87312C8.68906 2.93116 8.73511 3.00006 8.76653 3.0759C8.79795 3.15174 8.81412 3.23303 8.81412 3.31512C8.81412 3.39721 8.79795 3.47849 8.76653 3.55433C8.73511 3.63017 8.68906 3.69908 8.631 3.75712L5.941 6.44712C5.88289 6.50516 5.81392 6.55119 5.73802 6.58258C5.66212 6.61397 5.58078 6.6301 5.49865 6.63005C5.41652 6.63001 5.3352 6.61378 5.25933 6.58231C5.18347 6.55083 5.11455 6.50473 5.0565 6.44662C4.99846 6.38851 4.95243 6.31953 4.92104 6.24363C4.88965 6.16773 4.87352 6.0864 4.87357 6.00426C4.87361 5.92213 4.88984 5.84081 4.92131 5.76495C4.95278 5.68908 4.99889 5.62016 5.057 5.56212L6.68 3.94012H5.654C4.78297 3.94012 3.93151 4.19841 3.20727 4.68232C2.48304 5.16624 1.91857 5.85405 1.58524 6.65878C1.25191 7.4635 1.1647 8.349 1.33462 9.20329C1.50455 10.0576 1.92399 10.8423 2.5399 11.4582C3.15582 12.0741 3.94053 12.4936 4.79483 12.6635C5.64912 12.8334 6.53462 12.7462 7.33934 12.4129C8.14407 12.0796 8.83188 11.5151 9.31579 10.7908C9.79971 10.0666 10.058 9.21515 10.058 8.34412C10.058 8.17836 10.1238 8.01939 10.2411 7.90217C10.3583 7.78496 10.5172 7.71912 10.683 7.71912C10.8488 7.71912 11.0077 7.78496 11.1249 7.90217C11.2422 8.01939 11.308 8.17836 11.308 8.34412C11.308 9.46237 10.9764 10.5555 10.3551 11.4853C9.73386 12.4151 8.85083 13.1398 7.8177 13.5677C6.78456 13.9957 5.64773 14.1076 4.55096 13.8895C3.45419 13.6713 2.44675 13.1328 1.65602 12.3421C0.865295 11.5514 0.326803 10.5439 0.108643 9.44716C-0.109518 8.35039 0.00244984 7.21356 0.430388 6.18042C0.858326 5.14729 1.58301 4.26426 2.51281 3.64299C3.4426 3.02172 4.53575 2.69012 5.654 2.69012H6.68L5.057 1.06712C4.99895 1.00908 4.9529 0.940171 4.92148 0.864332C4.89006 0.788493 4.87389 0.707207 4.87389 0.625117C4.87389 0.543027 4.89006 0.46174 4.92148 0.385901C4.9529 0.310062 4.99895 0.241155 5.057 0.183116Z" fill="#8F939F"/>
  </symbol>
  <symbol id="icon-back" viewBox="0 0 19 14" fill="none" xmlns="http://www.w3.org/2000/svg">
    <path d="M17.4998 5.84357H2.84482L7.25565 1.43274C7.33525 1.35587 7.39873 1.26391 7.44241 1.16224C7.48608 1.06057 7.50907 0.951224 7.51003 0.840575C7.51099 0.729925 7.48991 0.620192 7.44801 0.517778C7.40611 0.415365 7.34423 0.322321 7.26598 0.244078C7.18774 0.165834 7.0947 0.103956 6.99228 0.0620553C6.88987 0.0201545 6.78014 -0.000930049 6.66949 3.14642e-05C6.55884 0.000992978 6.44949 0.0239815 6.34782 0.0676557C6.24615 0.11133 6.15419 0.174815 6.07732 0.254407L0.243989 6.08774C0.0877628 6.24401 0 6.45594 0 6.67691C0 6.89788 0.0877628 7.1098 0.243989 7.26607L6.07732 13.0994C6.23449 13.2512 6.44499 13.3352 6.66349 13.3333C6.88199 13.3314 7.091 13.2438 7.2455 13.0893C7.40001 12.9347 7.48765 12.7257 7.48955 12.5072C7.49145 12.2887 7.40745 12.0782 7.25565 11.9211L2.84482 7.51024H17.4998C17.7208 7.51024 17.9328 7.42244 18.0891 7.26616C18.2454 7.10988 18.3332 6.89792 18.3332 6.67691C18.3332 6.45589 18.2454 6.24393 18.0891 6.08765C17.9328 5.93137 17.7208 5.84357 17.4998 5.84357Z" fill="currentColor"/>
  </symbol>
  <symbol id="icon-arrow" viewBox="0 0 12 12" fill="none" xmlns="http://www.w3.org/2000/svg">
    <g clip-path="url(#clip0_2_728)">
    <path d="M11.7212 1.9613C11.3499 1.58952 10.747 1.58976 10.3752 1.9613L4.31744 8.0193L1.62503 5.32691C1.25325 4.95513 0.650609 4.95513 0.278832 5.32691C-0.0929441 5.69868 -0.0929441 6.30133 0.278832 6.6731L3.6442 10.0385C3.82998 10.2242 4.07357 10.3174 4.31719 10.3174C4.5608 10.3174 4.80463 10.2245 4.9904 10.0385L11.7212 3.30747C12.0929 2.93595 12.0929 2.33305 11.7212 1.9613Z" fill="currentColor"/>
    </g>
    <defs>
    <clipPath id="clip0_2_728">
    <rect width="12" height="12" fill="currentColor"/>
    </clipPath>
    </defs>
  </symbol>
</svg>
