<svg width="30" height="30" viewBox="0 0 30 30" fill="none" xmlns="http://www.w3.org/2000/svg">
<path d="M17.8246 30C9.31585 30 9.25031 29.6464 8.19607 28.8519C7.63712 28.4308 6.58289 28.1391 2.73015 27.8877C2.45114 27.8689 2.18431 27.762 2.00642 27.5453C1.92496 27.445 0 24.6329 0 20.1288C0 15.6903 1.37818 13.6662 1.43623 13.5724C1.60663 13.2976 1.90717 13.1316 2.22925 13.1316C5.39195 13.1316 9.77742 9.08611 12.7248 2.02508C13.2341 0.80384 13.3399 0 15.2124 0C16.277 0 17.4717 0.764445 18.0606 1.74462C19.2693 3.74719 18.656 8.04871 18.0877 10.3467C20.0192 10.3308 23.5143 10.3045 25.1771 10.3045C27.4906 10.3045 29.0224 11.6862 29.0682 13.7065C29.0842 14.3734 28.9962 15.2251 28.8042 15.666C29.3135 16.1753 29.9699 16.9416 29.9989 17.9302C30.0345 19.2059 29.2012 20.1767 28.6685 20.7338C28.7911 21.1043 29.0345 21.5967 29.0111 22.1848C28.9522 23.6312 27.838 24.5626 27.1442 25.0494C27.2013 25.4452 27.2472 26.1918 27.1199 26.7696C26.619 29.0742 23.2465 29.9991 17.8246 29.9991V30ZM3.22731 25.9855C6.58289 26.2641 8.37677 26.6402 9.3224 27.354C10.0546 27.9065 9.94221 28.125 17.8246 28.125C20.229 28.125 24.9309 28.0246 25.2923 26.371C25.4355 25.7097 24.7399 25.0597 24.7371 25.055C24.547 24.5851 24.7586 24.0336 25.2221 23.831C25.2296 23.8272 27.0993 23.1566 27.1414 22.1098C27.1695 21.441 26.7107 21.0386 26.7004 21.0218C26.428 20.5978 26.5272 20.0163 26.941 19.7274C26.9457 19.7236 28.1573 18.9882 28.1273 17.9856C28.1048 17.1892 27.0571 16.6283 27.0253 16.6105C26.7912 16.4764 26.6208 16.2447 26.5675 15.9783C26.515 15.7138 26.574 15.4352 26.7388 15.2204C26.7388 15.2204 27.2154 14.4625 27.1976 13.7516C27.1629 12.2292 25.5292 12.1814 25.179 12.1814C22.8168 12.1814 16.7517 12.2049 16.7517 12.2049C16.4249 12.2067 16.1412 12.051 15.9652 11.7893C15.7892 11.5276 15.777 11.2012 15.8791 10.9039C16.7938 8.26538 17.305 4.12425 16.4558 2.70979C16.2058 2.2924 16.1487 1.87594 15.2124 1.87594C15.0823 1.87594 14.7743 1.97911 14.4522 2.74731C11.3241 10.2464 6.65123 14.5845 2.82284 14.9756C2.49234 15.7297 1.8716 17.2924 1.8716 20.1279C1.8716 23.0215 2.78633 25.2614 3.22637 25.9855H3.22731Z" fill="white"/>
</svg>
