<svg width="28" height="28" viewBox="0 0 28 28" fill="none" xmlns="http://www.w3.org/2000/svg">
<path d="M0.999817 14.0369C1.01327 17.1934 2.10048 20.253 4.08553 22.7208C6.07058 25.1886 8.83735 26.9202 11.9382 27.6354C15.039 28.3505 18.2925 28.0075 21.1723 26.6616C24.052 25.3158 26.3896 23.046 27.8067 20.2195C27.9661 19.9519 28.0214 19.6358 27.9622 19.3306C27.903 19.0254 27.7334 18.7522 27.4853 18.5623C27.3347 18.4488 27.1607 18.3697 26.9758 18.3305C26.7908 18.2914 26.5994 18.2932 26.4152 18.3358C26.2311 18.3784 26.0586 18.4608 25.9102 18.5771C25.7618 18.6933 25.6411 18.8406 25.5568 19.0084C24.6259 20.9632 23.1512 22.6136 21.3062 23.7654C19.4612 24.9172 17.3228 25.5224 15.1426 25.5097C13.2119 25.5115 11.3116 25.0343 9.61455 24.1215C7.91754 23.2088 6.47783 21.8896 5.42657 20.2841C4.37531 18.6785 3.74593 16.8377 3.59574 14.9293C3.44556 13.0209 3.77936 11.1056 4.56673 9.35785C5.3541 7.61009 6.57001 6.08543 8.1037 4.92277C9.63739 3.76011 11.4401 2.9964 13.3476 2.70122C15.2552 2.40603 17.2069 2.58876 19.0249 3.23275C20.843 3.87674 22.4697 4.96152 23.7568 6.38827H20.3497C20.032 6.38251 19.7225 6.48801 19.4756 6.68621C19.2286 6.8844 19.0601 7.16259 18.9997 7.47182C18.9717 7.65452 18.9841 7.84107 19.0361 8.01853C19.0881 8.196 19.1783 8.36014 19.3006 8.49959C19.4229 8.63904 19.5743 8.75045 19.7444 8.82612C19.9144 8.90179 20.099 8.93989 20.2854 8.9378H26.7139C27.0549 8.9378 27.3819 8.80349 27.623 8.56443C27.8641 8.32537 27.9996 8.00112 27.9996 7.66304V1.35295C28.0054 1.03801 27.899 0.731133 27.6991 0.486307C27.4992 0.241481 27.2186 0.0743963 26.9067 0.0144504C26.7225 -0.0132805 26.5343 -0.000957884 26.3553 0.0505646C26.1763 0.102087 26.0108 0.191578 25.8702 0.312835C25.7295 0.434093 25.6171 0.584219 25.5408 0.752812C25.4645 0.921405 25.4261 1.10443 25.4282 1.28921V4.41239C23.4844 2.37023 20.967 0.953722 18.202 0.34628C15.437 -0.261161 12.5518 -0.0315511 9.9199 1.00538C7.28802 2.0423 5.03074 3.83879 3.44037 6.16219C1.84999 8.48559 0.999774 11.2289 0.999817 14.0369Z" fill="white"/>
<path d="M19.8333 19.6667C19.6253 19.671 19.4213 19.6098 19.25 19.4917L12.8333 15.6417V9.16668C12.8333 8.85726 12.9562 8.56052 13.175 8.34172C13.3938 8.12293 13.6906 8.00002 14 8.00002C14.3094 8.00002 14.6061 8.12293 14.8249 8.34172C15.0437 8.56052 15.1666 8.85726 15.1666 9.16668V14.3583L20.4166 17.5083C20.5513 17.5806 20.6695 17.68 20.7638 17.8002C20.8582 17.9203 20.9267 18.0587 20.9651 18.2066C21.0034 18.3545 21.0108 18.5087 20.9867 18.6596C20.9625 18.8105 20.9075 18.9548 20.825 19.0833C20.7289 19.262 20.5856 19.4109 20.4108 19.5138C20.2359 19.6166 20.0362 19.6695 19.8333 19.6667Z" fill="white"/>
</svg>
