<svg width="13" height="13" viewBox="0 0 13 13" fill="none" xmlns="http://www.w3.org/2000/svg">
<path fill-rule="evenodd" clip-rule="evenodd" d="M12.1869 0.146461C12.3296 0.289191 12.3725 0.503743 12.2957 0.69039L7.62901 12.0237C7.55236 12.2099 7.37154 12.3319 7.17024 12.3333C6.96893 12.3348 6.78639 12.2153 6.70709 12.0303L4.78588 7.54747L0.30304 5.62625C0.118005 5.54695 -0.001425 5.36442 1.28399e-05 5.16311C0.00145068 4.9618 0.123476 4.78099 0.309625 4.70434L11.643 0.0376756C11.8296 -0.039179 12.0442 0.00373143 12.1869 0.146461ZM1.79081 5.1759L5.36363 6.70711C5.48163 6.75768 5.57566 6.85171 5.62624 6.96972L7.15745 10.5425L10.9141 1.41925L1.79081 5.1759Z" fill="#476BF0"/>
</svg>
