<svg width="12" height="14" viewBox="0 0 12 14" fill="none" xmlns="http://www.w3.org/2000/svg">
<path d="M5.057 0.183116C5.11504 0.125062 5.18395 0.0790105 5.25979 0.047591C5.33563 0.0161715 5.41691 0 5.499 0C5.58109 0 5.66238 0.0161715 5.73822 0.047591C5.81406 0.0790105 5.88296 0.125062 5.941 0.183116L8.631 2.87312C8.68906 2.93116 8.73511 3.00006 8.76653 3.0759C8.79795 3.15174 8.81412 3.23303 8.81412 3.31512C8.81412 3.39721 8.79795 3.47849 8.76653 3.55433C8.73511 3.63017 8.68906 3.69908 8.631 3.75712L5.941 6.44712C5.88289 6.50516 5.81392 6.55119 5.73802 6.58258C5.66212 6.61397 5.58078 6.6301 5.49865 6.63005C5.41652 6.63001 5.3352 6.61378 5.25933 6.58231C5.18347 6.55083 5.11455 6.50473 5.0565 6.44662C4.99846 6.38851 4.95243 6.31953 4.92104 6.24363C4.88965 6.16773 4.87352 6.0864 4.87357 6.00426C4.87361 5.92213 4.88984 5.84081 4.92131 5.76495C4.95278 5.68908 4.99889 5.62016 5.057 5.56212L6.68 3.94012H5.654C4.78297 3.94012 3.93151 4.19841 3.20727 4.68232C2.48304 5.16624 1.91857 5.85405 1.58524 6.65878C1.25191 7.4635 1.1647 8.349 1.33462 9.20329C1.50455 10.0576 1.92399 10.8423 2.5399 11.4582C3.15582 12.0741 3.94053 12.4936 4.79483 12.6635C5.64912 12.8334 6.53462 12.7462 7.33934 12.4129C8.14407 12.0796 8.83188 11.5151 9.31579 10.7908C9.79971 10.0666 10.058 9.21515 10.058 8.34412C10.058 8.17836 10.1238 8.01939 10.2411 7.90217C10.3583 7.78496 10.5172 7.71912 10.683 7.71912C10.8488 7.71912 11.0077 7.78496 11.1249 7.90217C11.2422 8.01939 11.308 8.17836 11.308 8.34412C11.308 9.46237 10.9764 10.5555 10.3551 11.4853C9.73386 12.4151 8.85083 13.1398 7.8177 13.5677C6.78456 13.9957 5.64773 14.1076 4.55096 13.8895C3.45419 13.6713 2.44675 13.1328 1.65602 12.3421C0.865295 11.5514 0.326803 10.5439 0.108643 9.44716C-0.109518 8.35039 0.00244984 7.21356 0.430388 6.18042C0.858326 5.14729 1.58301 4.26426 2.51281 3.64299C3.4426 3.02172 4.53575 2.69012 5.654 2.69012H6.68L5.057 1.06712C4.99895 1.00908 4.9529 0.940171 4.92148 0.864332C4.89006 0.788493 4.87389 0.707207 4.87389 0.625117C4.87389 0.543027 4.89006 0.46174 4.92148 0.385901C4.9529 0.310062 4.99895 0.241155 5.057 0.183116Z" fill="#8F939F"/>
</svg>
