<svg width="16" height="16" viewBox="0 0 16 16" fill="none" xmlns="http://www.w3.org/2000/svg">
<path fill-rule="evenodd" clip-rule="evenodd" d="M4.83923 3.76808C4.34915 3.06816 3.85448 2.37148 3.35523 1.67808C3.31323 1.62008 3.23823 1.50508 3.15323 1.50008C3.11523 1.49808 2.92523 1.51008 2.59723 1.75808C1.63323 2.48808 1.24523 3.60208 1.66723 5.24208C2.06123 6.77208 3.31123 9.01508 5.14823 10.8521C6.98523 12.6891 9.22823 13.9391 10.7582 14.3321C12.3982 14.7551 13.5122 14.3671 14.2422 13.4031C14.4902 13.0751 14.5022 12.8851 14.5002 12.8471C14.4952 12.7621 14.3802 12.6871 14.3222 12.6451C13.8662 12.3131 13.0232 11.7171 12.2322 11.1611C11.9422 10.9571 11.7782 10.8441 11.6522 10.7661C11.4802 10.6601 11.3602 10.7481 11.2232 10.8811C11.0102 11.0881 10.8112 11.3151 10.5702 11.4911C10.2675 11.7132 9.90626 11.8418 9.53123 11.8611C8.97523 11.8891 8.47923 11.6591 8.06323 11.3081C6.82718 10.2978 5.69553 9.16613 4.68523 7.93008C4.33323 7.51208 4.10723 7.01008 4.14023 6.45208C4.16723 5.99708 4.34823 5.65208 4.51423 5.42508C4.68823 5.18608 4.91423 4.98908 5.11923 4.77808C5.24923 4.64408 5.34923 4.53608 5.23423 4.34808C5.10776 4.15158 4.97605 3.95751 4.83923 3.76808ZM4.56923 0.795081C4.90923 1.26308 5.51123 2.11608 6.06623 2.90508C6.45323 3.45708 6.64623 3.73208 6.72823 4.02308C6.84323 4.43308 6.82023 4.83908 6.62123 5.25608C6.49123 5.52808 6.35123 5.66808 5.87323 6.14608C5.75923 6.25908 5.64723 6.37008 5.63723 6.53908C5.62723 6.71308 5.72923 6.83708 5.83323 6.96308C6.78453 8.12799 7.84982 9.19495 9.01323 10.1481C9.13923 10.2511 9.28523 10.3721 9.45623 10.3631C9.62823 10.3551 9.74023 10.2411 9.85523 10.1261C10.3332 9.64808 10.4722 9.50908 10.7442 9.37908C11.1294 9.19777 11.5666 9.15983 11.9772 9.27208C12.2672 9.35308 12.5432 9.54708 13.0942 9.93408C13.8842 10.4891 14.7372 11.0911 15.2042 11.4321C16.2312 12.1781 16.2152 13.2821 15.4382 14.3081C14.2582 15.8661 12.4622 16.3201 10.3842 15.7851C8.54823 15.3141 6.07823 13.9031 4.08723 11.9131C2.09723 9.92308 0.687228 7.45208 0.214228 5.61608C-0.319772 3.53808 0.134228 1.74108 1.69223 0.562081C2.71823 -0.214919 3.82323 -0.230919 4.56923 0.795081Z" fill="#ADAFBA"/>
</svg>
