<svg width="17" height="14" viewBox="0 0 17 14" fill="none" xmlns="http://www.w3.org/2000/svg">
<path fill-rule="evenodd" clip-rule="evenodd" d="M1.02113 6.083C4.80313 4.497 9.37713 2.241 13.3411 0.716001C17.0011 -0.628999 16.9401 -0.261999 16.3911 3.399C15.9631 6.327 15.4741 9.254 14.9881 12.182C14.8051 13.584 14.0711 14.316 12.5481 13.466L7.79113 10.111C7.11913 9.561 7.30213 9.133 7.85213 8.587L12.2431 4.438C13.4051 3.277 12.8541 2.852 11.5101 3.766L5.47213 7.852C4.61613 8.463 3.70313 8.463 2.72713 8.158L0.654127 7.424C-0.690873 6.935 0.348127 6.384 1.02113 6.082V6.083Z" fill="#ADAFBA"/>
</svg>
