<svg width="16" height="16" viewBox="0 0 16 16" fill="none" xmlns="http://www.w3.org/2000/svg">
<path fill-rule="evenodd" clip-rule="evenodd" d="M4.57251 0.77172C5.52197 0.321483 6.55081 0.0626638 7.60029 0.0100406C8.64977 -0.0425827 9.69934 0.11202 10.6891 0.465022C11.6788 0.818024 12.5893 1.36251 13.3686 2.0674C14.1479 2.77228 14.7808 3.62376 15.231 4.57322C15.6812 5.52268 15.9401 6.55152 15.9927 7.601C16.0453 8.65048 15.8907 9.70005 15.5377 10.6898C15.1847 11.6795 14.6402 12.59 13.9353 13.3693C13.2304 14.1486 12.379 14.7815 11.4295 15.2317C9.51199 16.1409 7.31185 16.2511 5.31309 15.5381C3.31433 14.8251 1.68067 13.3472 0.771509 11.4297C-0.137653 9.51221 -0.247849 7.31206 0.465165 5.3133C1.17818 3.31454 2.65499 1.68088 4.57251 0.77172ZM14.8585 8.00172C14.859 9.09057 14.6001 10.1639 14.1033 11.1328C13.6066 12.1017 12.8862 12.9384 12.0019 13.5737C11.1175 14.2089 10.0946 14.6244 9.01782 14.7858C7.941 14.9472 6.84122 14.8498 5.80951 14.5017C6.84217 13.7615 7.6834 12.7857 8.26341 11.6552C8.84342 10.5248 9.14547 9.27228 9.14451 8.00172C9.14547 6.73116 8.84342 5.47869 8.26341 4.34823C7.6834 3.21778 6.84217 2.24195 5.80951 1.50172C6.84122 1.15364 7.941 1.05627 9.01782 1.21765C10.0946 1.37903 11.1175 1.79454 12.0019 2.42977C12.8862 3.06501 13.6066 3.90171 14.1033 4.87064C14.6001 5.83957 14.859 6.91287 14.8585 8.00172Z" fill="#767A85"/>
</svg>
