<svg width="21" height="11" viewBox="0 0 21 11" fill="none" xmlns="http://www.w3.org/2000/svg">
<path d="M15.9615 0.00728727C14.2065 -0.0827127 12.6465 0.667287 11.6265 1.90479C11.6265 1.90479 10.479 3.38979 10.479 3.38229C10.479 3.38229 9.03153 5.27979 9.03903 5.27979L7.79403 6.91479L7.69653 7.04229C6.98403 7.99479 5.72403 8.52729 4.39653 8.13729C3.89963 7.98719 3.45123 7.70839 3.09693 7.32899C2.74263 6.94959 2.49493 6.48329 2.37903 5.97729C2.27563 5.53899 2.27263 5.08309 2.37023 4.64349C2.46783 4.20389 2.66343 3.79199 2.94253 3.43859C3.22163 3.08519 3.57693 2.79949 3.98203 2.60269C4.38703 2.40599 4.83123 2.30329 5.28153 2.30229C6.18903 2.30229 6.86403 2.68479 7.32903 3.08979C7.82403 3.52479 8.58153 3.45729 8.98653 2.93229C9.33903 2.47479 9.29403 1.81479 8.87403 1.42479C6.50403 -0.750212 2.01903 -0.255213 0.586528 2.76729C-1.27343 6.68979 1.56153 10.5598 5.28153 10.5598C6.91653 10.5598 8.37903 9.83229 9.34653 8.66229L9.66903 8.24229C9.66903 8.24229 10.4865 7.16979 10.4865 7.17729C10.4865 7.17729 11.934 5.27979 11.9265 5.27979L13.194 3.62229L13.284 3.50979C13.9365 2.62479 15.0615 2.12229 16.299 2.36229C17.394 2.57979 18.3015 3.43479 18.5715 4.52229C19.0665 6.49479 17.5815 8.27229 15.684 8.27229C14.7915 8.27229 14.1165 7.88979 13.6515 7.47729C13.5341 7.37429 13.3968 7.29659 13.2481 7.24889C13.0993 7.20119 12.9424 7.18449 12.787 7.19999C12.6316 7.21549 12.481 7.26269 12.3446 7.33879C12.2082 7.41489 12.0889 7.51819 11.994 7.64229C11.6265 8.12229 11.694 8.78979 12.144 9.19479C12.8415 9.81729 14.034 10.5748 15.684 10.5748C18.834 10.5748 21.3465 7.80729 20.919 4.57479C20.589 2.08479 18.459 0.134787 15.9615 0.00728727Z" fill="#259DD6"/>
</svg>
